<svg width="20" height="20" viewBox="0 0 20 20" fill="none" xmlns="http://www.w3.org/2000/svg">
<path d="M17.5 15.8333V16.6667H2.5V15.8333L4.16667 14.1667V9.16667C4.16667 6.58334 5.85833 4.30834 8.33333 3.57501V3.33334C8.33333 2.89131 8.50893 2.46739 8.82149 2.15483C9.13405 1.84227 9.55797 1.66667 10 1.66667C10.442 1.66667 10.866 1.84227 11.1785 2.15483C11.4911 2.46739 11.6667 2.89131 11.6667 3.33334V3.57501C14.1417 4.30834 15.8333 6.58334 15.8333 9.16667V14.1667L17.5 15.8333ZM11.6667 17.5C11.6667 17.942 11.4911 18.366 11.1785 18.6785C10.866 18.9911 10.442 19.1667 10 19.1667C9.55797 19.1667 9.13405 18.9911 8.82149 18.6785C8.50893 18.366 8.33333 17.942 8.33333 17.5" fill="white"/>
</svg>
