<svg width="20" height="20" viewBox="0 0 20 20" fill="none" xmlns="http://www.w3.org/2000/svg">
<path d="M1.25 14.6875C1.25 15.2677 1.48047 15.8241 1.8907 16.2343C2.30094 16.6445 2.85734 16.875 3.4375 16.875H16.5625C17.1427 16.875 17.6991 16.6445 18.1093 16.2343C18.5195 15.8241 18.75 15.2677 18.75 14.6875V8.67188H1.25V14.6875ZM3.82812 11.7188C3.82812 11.4079 3.95159 11.1099 4.17136 10.8901C4.39113 10.6703 4.6892 10.5469 5 10.5469H6.875C7.1858 10.5469 7.48387 10.6703 7.70364 10.8901C7.92341 11.1099 8.04688 11.4079 8.04688 11.7188V12.5C8.04688 12.8108 7.92341 13.1089 7.70364 13.3286C7.48387 13.5484 7.1858 13.6719 6.875 13.6719H5C4.6892 13.6719 4.39113 13.5484 4.17136 13.3286C3.95159 13.1089 3.82812 12.8108 3.82812 12.5V11.7188ZM16.5625 3.125H3.4375C2.85734 3.125 2.30094 3.35547 1.8907 3.7657C1.48047 4.17594 1.25 4.73234 1.25 5.3125V6.32812H18.75V5.3125C18.75 4.73234 18.5195 4.17594 18.1093 3.7657C17.6991 3.35547 17.1427 3.125 16.5625 3.125Z" fill="white"/>
</svg>
