<svg width="20" height="20" viewBox="0 0 20 20" fill="none" xmlns="http://www.w3.org/2000/svg">
<path d="M16.6922 7.94218L10.4422 14.1922C10.3841 14.2503 10.3152 14.2964 10.2393 14.3278C10.1635 14.3593 10.0821 14.3755 10 14.3755C9.91786 14.3755 9.83653 14.3593 9.76066 14.3278C9.68479 14.2964 9.61585 14.2503 9.55781 14.1922L3.30781 7.94218C3.19053 7.82491 3.12465 7.66585 3.12465 7.5C3.12465 7.33414 3.19053 7.17508 3.30781 7.05781C3.42508 6.94053 3.58414 6.87465 3.75 6.87465C3.91585 6.87465 4.07491 6.94053 4.19218 7.05781L10 12.8664L15.8078 7.05781C15.8659 6.99974 15.9348 6.95368 16.0107 6.92225C16.0866 6.89082 16.1679 6.87465 16.25 6.87465C16.3321 6.87465 16.4134 6.89082 16.4893 6.92225C16.5652 6.95368 16.6341 6.99974 16.6922 7.05781C16.7503 7.11588 16.7963 7.18482 16.8277 7.26069C16.8592 7.33656 16.8753 7.41787 16.8753 7.5C16.8753 7.58212 16.8592 7.66344 16.8277 7.73931C16.7963 7.81518 16.7503 7.88412 16.6922 7.94218Z" fill="#4B002D"/>
</svg>
