<svg width="20" height="20" viewBox="0 0 20 20" fill="none" xmlns="http://www.w3.org/2000/svg">
<path d="M10.3825 1.38375C10.2716 1.29728 10.135 1.25033 9.99438 1.25033C9.85375 1.25033 9.71715 1.29728 9.60625 1.38375L0.625 8.38687L1.40188 9.36937L2.5 8.51312V16.25C2.50066 16.5813 2.63257 16.8989 2.86685 17.1332C3.10112 17.3674 3.41868 17.4993 3.75 17.5H16.25C16.5813 17.4993 16.8989 17.3674 17.1332 17.1332C17.3674 16.8989 17.4993 16.5813 17.5 16.25V8.51875L18.5981 9.375L19.375 8.3925L10.3825 1.38375ZM11.25 16.25H8.75V11.25H11.25V16.25ZM12.5 16.25V11.25C12.4997 10.9186 12.3679 10.6008 12.1335 10.3665C11.8992 10.1321 11.5814 10.0003 11.25 10H8.75C8.41858 10.0003 8.10083 10.1321 7.86648 10.3665C7.63213 10.6008 7.50033 10.9186 7.5 11.25V16.25H3.75V7.53875L10 2.67L16.25 7.545V16.25H12.5Z" fill="#FB552E"/>
</svg>
