<svg width="20" height="20" viewBox="0 0 20 20" fill="none" xmlns="http://www.w3.org/2000/svg">
<g clip-path="url(#clip0_10_18)">
<path d="M12.5 10H1.66666M1.66666 10L4.58332 7.5M1.66666 10L4.58332 12.5" stroke="white" stroke-width="1.5" stroke-linecap="round" stroke-linejoin="round"/>
<path d="M7.50165 5.83334C7.51165 4.02084 7.59248 3.03917 8.23248 2.39917C8.96498 1.66667 10.1433 1.66667 12.5 1.66667H13.3333C15.6908 1.66667 16.8691 1.66667 17.6016 2.39917C18.3333 3.13084 18.3333 4.31 18.3333 6.66667V13.3333C18.3333 15.69 18.3333 16.8692 17.6016 17.6008C16.9608 18.2417 15.9791 18.3217 14.1666 18.3317M7.50165 14.1667C7.51165 15.9792 7.59248 16.9608 8.23248 17.6008C8.76665 18.1358 9.53915 18.28 10.8333 18.3192" stroke="white" stroke-width="1.5" stroke-linecap="round"/>
</g>
<defs>
<clipPath id="clip0_10_18">
<rect width="20" height="20" fill="white"/>
</clipPath>
</defs>
</svg>
