<svg width="20" height="20" viewBox="0 0 20 20" fill="none" xmlns="http://www.w3.org/2000/svg">
<path d="M18.3333 7.17333V13.9583C18.3334 14.6501 18.0687 15.3157 17.5936 15.8185C17.1185 16.3214 16.469 16.6233 15.7783 16.6625L15.625 16.6667H4.37501C3.68322 16.6667 3.01765 16.402 2.51481 15.9269C2.01198 15.4518 1.71 14.8023 1.67084 14.1117L1.66667 13.9583V7.17333L9.71001 11.3867C9.79949 11.4335 9.89899 11.458 10 11.458C10.101 11.458 10.2005 11.4335 10.29 11.3867L18.3333 7.17333ZM4.37501 3.33333H15.625C16.2963 3.33325 16.9437 3.58249 17.4417 4.03272C17.9397 4.48294 18.2527 5.10206 18.32 5.76999L10 10.1283L1.68001 5.76999C1.74461 5.12859 2.03588 4.53126 2.50146 4.08538C2.96705 3.6395 3.57641 3.37432 4.22001 3.3375L4.37501 3.33333Z" fill="white"/>
</svg>
