<svg width="20" height="20" viewBox="0 0 20 20" fill="none" xmlns="http://www.w3.org/2000/svg">
<path d="M8.33332 15C9.81247 14.9997 11.249 14.5045 12.4142 13.5933L16.0775 17.2567L17.2558 16.0783L13.5925 12.415C14.5042 11.2497 14.9996 9.81287 15 8.33333C15 4.6575 12.0092 1.66667 8.33332 1.66667C4.65749 1.66667 1.66666 4.6575 1.66666 8.33333C1.66666 12.0092 4.65749 15 8.33332 15ZM8.33332 3.33333C11.0908 3.33333 13.3333 5.57583 13.3333 8.33333C13.3333 11.0908 11.0908 13.3333 8.33332 13.3333C5.57582 13.3333 3.33332 11.0908 3.33332 8.33333C3.33332 5.57583 5.57582 3.33333 8.33332 3.33333Z" />
</svg>
