<svg width="24" height="24" viewBox="0 0 24 24" fill="none" xmlns="http://www.w3.org/2000/svg">
<path fill-rule="evenodd" clip-rule="evenodd" d="M14.8723 2.152C14.4829 2 13.9881 2 12.9998 2C12.0114 2 11.5166 2 11.1272 2.152C10.6087 2.35421 10.196 2.74377 9.97984 3.235C9.88089 3.458 9.843 3.719 9.82721 4.098C9.82019 4.3726 9.73956 4.64097 9.59295 4.87772C9.44634 5.11447 9.23858 5.31178 8.98934 5.451C8.73539 5.5851 8.44992 5.65615 8.15939 5.65754C7.86885 5.65894 7.58264 5.59065 7.32728 5.459C6.9715 5.281 6.71361 5.183 6.45888 5.151C5.90158 5.08148 5.33793 5.2238 4.8905 5.547C4.55577 5.789 4.30841 6.193 3.81474 7C3.32002 7.807 3.07371 8.21 3.01792 8.605C2.94424 9.131 3.09581 9.663 3.43896 10.084C3.59475 10.276 3.81474 10.437 4.15473 10.639C4.65682 10.936 4.97892 11.442 4.97892 12C4.97892 12.558 4.65682 13.064 4.15578 13.36C3.81474 13.563 3.59475 13.724 3.43791 13.916C3.26853 14.1239 3.1442 14.3617 3.07211 14.6156C3.00003 14.8694 2.98161 15.1343 3.01792 15.395C3.07371 15.789 3.32002 16.193 3.81474 17C4.30946 17.807 4.55577 18.21 4.8905 18.453C5.33681 18.776 5.901 18.918 6.45888 18.849C6.71361 18.817 6.9715 18.719 7.32728 18.541C7.58277 18.4092 7.86917 18.3408 8.15991 18.3422C8.45066 18.3436 8.73631 18.4147 8.99039 18.549C9.50195 18.829 9.8051 19.344 9.82721 19.902C9.843 20.282 9.88089 20.542 9.97984 20.765C10.1946 21.255 10.6072 21.645 11.1272 21.848C11.5166 22 12.0114 22 12.9998 22C13.9881 22 14.4829 22 14.8723 21.848C15.3908 21.6458 15.8035 21.2562 16.0197 20.765C16.1186 20.542 16.1565 20.282 16.1723 19.902C16.1934 19.344 16.4976 18.828 17.0102 18.549C17.2641 18.4149 17.5496 18.3439 17.8401 18.3425C18.1307 18.3411 18.4169 18.4093 18.6722 18.541C19.028 18.719 19.2859 18.817 19.5406 18.849C20.0985 18.919 20.6627 18.776 21.109 18.453C21.4437 18.211 21.6911 17.807 22.1848 17C22.6795 16.193 22.9258 15.79 22.9816 15.395C23.0178 15.1343 22.9992 14.8693 22.9269 14.6155C22.8546 14.3616 22.7301 14.1239 22.5605 13.916C22.4048 13.724 22.1848 13.563 21.8448 13.361C21.3427 13.064 21.0206 12.558 21.0206 12C21.0206 11.442 21.3427 10.936 21.8437 10.64C22.1848 10.437 22.4048 10.276 22.5616 10.084C22.731 9.87606 22.8553 9.63829 22.9274 9.38443C22.9995 9.13057 23.0179 8.86566 22.9816 8.605C22.9258 8.211 22.6795 7.807 22.1848 7C21.69 6.193 21.4437 5.79 21.109 5.547C20.6616 5.2238 20.0979 5.08148 19.5406 5.151C19.2859 5.183 19.028 5.281 18.6722 5.459C18.4167 5.59083 18.1303 5.65922 17.8396 5.65782C17.5489 5.65642 17.2632 5.58528 17.0091 5.451C16.7601 5.31166 16.5525 5.11429 16.4061 4.87755C16.2597 4.64081 16.1792 4.37251 16.1723 4.098C16.1565 3.718 16.1186 3.458 16.0197 3.235C15.9127 2.99174 15.7563 2.77088 15.5594 2.58506C15.3626 2.39923 15.1291 2.25208 14.8723 2.152ZM12.9998 15C14.7576 15 16.1818 13.657 16.1818 12C16.1818 10.343 14.7565 9 12.9998 9C11.2419 9 9.81774 10.343 9.81774 12C9.81774 13.657 11.243 15 12.9998 15Z" fill="white"/>
</svg>
